<svg xmlns="http://www.w3.org/2000/svg"
  width="100"
  height="100"
  viewBox="0 0 256 317"
  version="1.1"
  id="Layer_1"
>
  <g id="SVGRepo_bgCarrier" stroke-width="0"></g>
  <g
    id="SVGRepo_tracerCarrier"
    stroke-linecap="round"
    stroke-linejoin="round"
  ></g>
  <g id="SVGRepo_iconCarrier">
    {" "}
    <path
      d="M128.13,0C57.42,0,0,57.38,0,128s57.42,128,128.13,128C198.66,256,256,198.62,256,128S198.66,0,128.13,0L128.13,0z M128.13,248c-61.61,0-111.76-50-111.76-112S66.52,24,128.13,24c61.63,0,111.79,50,111.79,112S189.76,248,128.13,248 L128.13,248z"
      fill="#8C01A0"
    ></path>{" "}
    <path
      d="M166.07,134.93c0,31.71-25.68,57.52-57.27,57.52s-57.27-25.81-57.27-57.52s25.68-57.52,57.27-57.52 S166.07,103.22,166.07,134.93L166.07,134.93z M110.8,178.61c18.8,0,33.97-15.17,33.97-33.68c0-18.51-15.17-33.68-33.97-33.68 S76.83,126.42,76.83,144.93C76.83,163.44,92,178.61,110.8,178.61L110.8,178.61z"
      fill="#FFFFFF"
    ></path>{" "}
    <path
      d="M132.48,69.84c-0.37,0-0.7-0.2-0.87-0.53c-6.02-12.08-19.84-20.22-35.73-20.22c-21.44,0-38.81,18.26-38.81,40.76 c0,5.8,1.64,11.17,4.48,15.76c0.5,0.74,1.37,1.17,2.31,1.17c0.37,0,0.74-0.11,1.05-0.34c6.53-4.68,14.33-7.47,22.97-7.47 c6.24,0,11.79,1.97,16.27,5.22c0.48,0.37,1.14,0.3,1.58-0.14c0.39-0.39,0.4-1.01,0.03-1.42c-4.42-5.36-9.69-9.61-15.66-12.51 c8.6-4.51,18.19-7.04,28.28-7.04c26.13,0,47.32,22.16,47.32,49.44c0,27.28-21.18,49.44-47.32,49.44c-26.35,0-47.82-21.66-47.82-48.44 c0-6.21-1.69-11.93-4.58-16.89c-0.4-0.71-1.22-1.09-2.05-0.9c-0.7,0.17-1.16,0.79-1.16,1.48c0,0.03,0.01,0.07,0.01,0.1 c0,0.53-0.21,1.02-0.57,1.38c-3.29,3.29-5.04,7.63-5.04,12.08c0,10.89,10.5,19.76,23.45,19.76c10.66,0,19.45-8.01,22.17-18.36 c0.1-0.41,0.5-0.66,0.88-0.57c0.42,0.1,0.67,0.52,0.57,0.93c-2.85,13.15-14.41,22.62-28.18,22.62c-18.97,0-34.4-15.62-34.4-34.94 c0-19.33,15.44-34.94,34.4-34.94c12.36,0,23.17,6.53,29.42,16.3c0.31,0.46,0.87,0.57,1.29,0.25c0.48-0.36,0.61-1.04,0.28-1.54 c-6.52-9.96-17.09-16.45-30.2-16.45c-20.11,0-36.4,16.62-36.4,37.19c0,20.57,16.29,37.19,36.4,37.19c15.63,0,28.82-9.61,34.21-23.35 c0.12-0.39,0.5-0.62,0.89-0.5C132.31,69.8,132.4,69.82,132.48,69.84L132.48,69.84z"
      fill="#FFFFFF"
    ></path>{" "}
  </g>
</svg>
